ffmpeg started on 2025-06-05 at 20:41:31
Report written to "D:\Convert\FFMetrics\reports\psnr_report-6.txt"
Log level: 32
Command line:
ffmpeg -hide_banner -nostdin -i "G:\\\xc0\xed\xe8\xec\xe5\\\xce\xed\xe3\xee\xe8\xed\xe3\xe8\\!_36_\xce\xf1\xe5\xed\xfc_2024\\DreamCast\\\xcd\xe5\xe7\xed\xe0\xea\xee\xec\xf6\xfb \xe2 \xe4\xf0\xf3\xe3\xee\xe9 \xe6\xe8\xe7\xed\xe8\\[DC] Raise wa Tanin ga Ii - 03_Telegram_HEVC.mkv" -i "G:\\\xc0\xed\xe8\xec\xe5\\\xce\xed\xe3\xee\xe8\xed\xe3\xe8\\!_36_\xce\xf1\xe5\xed\xfc_2024\\DreamCast\\\xcd\xe5\xe7\xed\xe0\xea\xee\xec\xf6\xfb \xe2 \xe4\xf0\xf3\xe3\xee\xe9 \xe6\xe8\xe7\xed\xe8\\[DC] Raise wa Tanin ga Ii - 03_Telegram.mp4" -lavfi "[0:v]settb=AVTB,setpts=PTS-STARTPTS,format=pix_fmts=yuv420p10,fps=24000/1001,scale=1920:1080:flags=bicubic[main];[1:v]settb=AVTB,setpts=PTS-STARTPTS,format=pix_fmts=yuv420p,fps=24000/1001,scale=1920:1080:flags=bicubic[ref];[main][ref]psnr=eof_action=endall:stats_file='D\\:/Convert/FFMetrics/logs/psnr_logfile-6.txt'" -f null -
Input #0, matroska,webm, from 'G:\Аниме\Онгоинги\!_36_Осень_2024\DreamCast\Незнакомцы в другой жизни\[DC] Raise wa Tanin ga Ii - 03_Telegram_HEVC.mkv':
  Metadata:
    COMPATIBLE_BRANDS: isomiso2avc1mp41
    MAJOR_BRAND     : isom
    MINOR_VERSION   : 512
    ENCODER         : Lavf61.7.100
  Duration: 00:23:46.73, start: -0.021000, bitrate: 789 kb/s
  Stream #0:0: Video: hevc (Main 10), yuv420p10le(tv, bt709, progressive), 1920x1080 [SAR 1:1 DAR 16:9], 23.98 fps, 23.98 tbr, 1k tbn (default)
      Metadata:
        HANDLER_NAME    : VideoHandler
        VENDOR_ID       : [0][0][0][0]
        ENCODER         : Lavc61.19.100 libx265
        BPS             : 592601
        DURATION        : 00:23:46.549708333
        NUMBER_OF_FRAMES: 34203
        NUMBER_OF_BYTES : 105671967
        _STATISTICS_WRITING_APP: mkvpropedit v66.0.0 ('Josie') 64-bit
        _STATISTICS_WRITING_DATE_UTC: 2025-05-31 15:04:16
        _STATISTICS_TAGS: BPS DURATION NUMBER_OF_FRAMES NUMBER_OF_BYTES
  Stream #0:1: Audio: aac (LC), 48000 Hz, stereo, fltp (default)
      Metadata:
        HANDLER_NAME    : SoundHandler
        VENDOR_ID       : [0][0][0][0]
        ENCODER         : Lavc61.19.100 aac
        BPS             : 192470
        DURATION        : 00:23:46.730000000
        NUMBER_OF_FRAMES: 66879
        NUMBER_OF_BYTES : 34325493
        _STATISTICS_WRITING_APP: mkvpropedit v66.0.0 ('Josie') 64-bit
        _STATISTICS_WRITING_DATE_UTC: 2025-05-31 15:04:16
        _STATISTICS_TAGS: BPS DURATION NUMBER_OF_FRAMES NUMBER_OF_BYTES
Input #1, mov,mp4,m4a,3gp,3g2,mj2, from 'G:\Аниме\Онгоинги\!_36_Осень_2024\DreamCast\Незнакомцы в другой жизни\[DC] Raise wa Tanin ga Ii - 03_Telegram.mp4':
  Metadata:
    major_brand     : isom
    minor_version   : 512
    compatible_brands: isomiso2avc1mp41
    encoder         : Lavf61.1.100
  Duration: 00:23:46.68, start: 0.000000, bitrate: 3741 kb/s
  Stream #1:0[0x1](und): Video: h264 (High) (avc1 / 0x31637661), yuv420p(tv, bt709, progressive), 1920x1080 [SAR 1:1 DAR 16:9], 3593 kb/s, 23.98 fps, 23.98 tbr, 24k tbn (default)
      Metadata:
        handler_name    : VideoHandler
        vendor_id       : [0][0][0][0]
        encoder         : Lavc61.3.100 h264_qsv
  Stream #1:1[0x2](und): Audio: aac (HE-AACv2) (mp4a / 0x6134706D), 48000 Hz, stereo, fltp, 144 kb/s (default)
      Metadata:
        handler_name    : SoundHandler
        vendor_id       : [0][0][0][0]
Stream mapping:
  Stream #0:0 (hevc) -> settb:default
  Stream #1:0 (h264) -> settb:default
  psnr:default -> Stream #0:0 (wrapped_avframe)
  Stream #0:1 -> #0:1 (aac (native) -> pcm_s16le (native))
Output #0, null, to 'pipe:':
  Metadata:
    COMPATIBLE_BRANDS: isomiso2avc1mp41
    MAJOR_BRAND     : isom
    MINOR_VERSION   : 512
    encoder         : Lavf61.7.100
  Stream #0:0: Video: wrapped_avframe, yuv420p10le(tv, bt709, progressive), 1920x1080 [SAR 1:1 DAR 16:9], q=2-31, 200 kb/s, 23.98 fps, 23.98 tbn
      Metadata:
        encoder         : Lavc61.19.100 wrapped_avframe
  Stream #0:1: Audio: pcm_s16le, 48000 Hz, stereo, s16, 1536 kb/s (default)
      Metadata:
        HANDLER_NAME    : SoundHandler
        VENDOR_ID       : [0][0][0][0]
        _STATISTICS_TAGS: BPS DURATION NUMBER_OF_FRAMES NUMBER_OF_BYTES
        BPS             : 192470
        DURATION        : 00:23:46.730000000
        NUMBER_OF_FRAMES: 66879
        NUMBER_OF_BYTES : 34325493
        _STATISTICS_WRITING_APP: mkvpropedit v66.0.0 ('Josie') 64-bit
        _STATISTICS_WRITING_DATE_UTC: 2025-05-31 15:04:16
        encoder         : Lavc61.19.100 pcm_s16le
frame=  154 fps=0.0 q=-0.0 size=N/A time=00:00:06.42 bitrate=N/A speed=12.8x    frame=  407 fps=398 q=-0.0 size=N/A time=00:00:16.97 bitrate=N/A speed=16.6x    frame=  657 fps=428 q=-0.0 size=N/A time=00:00:27.40 bitrate=N/A speed=17.9x    frame=  930 fps=451 q=-0.0 size=N/A time=00:00:38.78 bitrate=N/A speed=18.8x    frame= 1207 fps=470 q=-0.0 size=N/A time=00:00:50.34 bitrate=N/A speed=19.6x    frame= 1480 fps=478 q=-0.0 size=N/A time=00:01:01.72 bitrate=N/A speed=19.9x    frame= 1739 fps=482 q=-0.0 size=N/A time=00:01:12.53 bitrate=N/A speed=20.1x    frame= 1981 fps=479 q=-0.0 size=N/A time=00:01:22.62 bitrate=N/A speed=  20x    frame= 2196 fps=472 q=-0.0 size=N/A time=00:01:31.59 bitrate=N/A speed=19.7x    frame= 2426 fps=470 q=-0.0 size=N/A time=00:01:41.18 bitrate=N/A speed=19.6x    frame= 2647 fps=466 q=-0.0 size=N/A time=00:01:50.40 bitrate=N/A speed=19.4x    frame= 2892 fps=467 q=-0.0 size=N/A time=00:02:00.62 bitrate=N/A speed=19.5x    frame= 3119 fps=465 q=-0.0 size=N/A time=00:02:10.08 bitrate=N/A speed=19.4x    frame= 3344 fps=462 q=-0.0 size=N/A time=00:02:19.47 bitrate=N/A speed=19.3x    frame= 3568 fps=461 q=-0.0 size=N/A time=00:02:28.81 bitrate=N/A speed=19.2x    frame= 3804 fps=461 q=-0.0 size=N/A time=00:02:38.65 bitrate=N/A speed=19.2x    frame= 4057 fps=462 q=-0.0 size=N/A time=00:02:49.21 bitrate=N/A speed=19.3x    frame= 4311 fps=464 q=-0.0 size=N/A time=00:02:59.80 bitrate=N/A speed=19.4x    frame= 4565 fps=465 q=-0.0 size=N/A time=00:03:10.39 bitrate=N/A speed=19.4x    frame= 4828 fps=467 q=-0.0 size=N/A time=00:03:21.36 bitrate=N/A speed=19.5x    frame= 5097 fps=470 q=-0.0 size=N/A time=00:03:32.58 bitrate=N/A speed=19.6x    frame= 5341 fps=470 q=-0.0 size=N/A time=00:03:42.76 bitrate=N/A speed=19.6x    frame= 5592 fps=471 q=-0.0 size=N/A time=00:03:53.23 bitrate=N/A speed=19.6x    frame= 5858 fps=472 q=-0.0 size=N/A time=00:04:04.32 bitrate=N/A speed=19.7x    frame= 6101 fps=473 q=-0.0 size=N/A time=00:04:14.46 bitrate=N/A speed=19.7x    frame= 6343 fps=472 q=-0.0 size=N/A time=00:04:24.55 bitrate=N/A speed=19.7x    frame= 6587 fps=472 q=-0.0 size=N/A time=00:04:34.73 bitrate=N/A speed=19.7x    frame= 6835 fps=472 q=-0.0 size=N/A time=00:04:45.07 bitrate=N/A speed=19.7x    frame= 7099 fps=474 q=-0.0 size=N/A time=00:04:56.08 bitrate=N/A speed=19.8x    frame= 7375 fps=475 q=-0.0 size=N/A time=00:05:07.59 bitrate=N/A speed=19.8x    frame= 7627 fps=476 q=-0.0 size=N/A time=00:05:18.10 bitrate=N/A speed=19.8x    frame= 7902 fps=478 q=-0.0 size=N/A time=00:05:29.57 bitrate=N/A speed=19.9x    frame= 8173 fps=479 q=-0.0 size=N/A time=00:05:40.88 bitrate=N/A speed=  20x    frame= 8461 fps=481 q=-0.0 size=N/A time=00:05:52.89 bitrate=N/A speed=20.1x    frame= 8729 fps=483 q=-0.0 size=N/A time=00:06:04.07 bitrate=N/A speed=20.1x    frame= 9013 fps=484 q=-0.0 size=N/A time=00:06:15.91 bitrate=N/A speed=20.2x    frame= 9282 fps=486 q=-0.0 size=N/A time=00:06:27.13 bitrate=N/A speed=20.3x    frame= 9568 fps=487 q=-0.0 size=N/A time=00:06:39.06 bitrate=N/A speed=20.3x    frame= 9841 fps=488 q=-0.0 size=N/A time=00:06:50.45 bitrate=N/A speed=20.4x    frame=10097 fps=489 q=-0.0 size=N/A time=00:07:01.12 bitrate=N/A speed=20.4x    frame=10372 fps=489 q=-0.0 size=N/A time=00:07:12.59 bitrate=N/A speed=20.4x    frame=10639 fps=490 q=-0.0 size=N/A time=00:07:23.73 bitrate=N/A speed=20.4x    frame=10899 fps=490 q=-0.0 size=N/A time=00:07:34.57 bitrate=N/A speed=20.5x    frame=11173 fps=491 q=-0.0 size=N/A time=00:07:46.04 bitrate=N/A speed=20.5x    frame=11421 fps=491 q=-0.0 size=N/A time=00:07:56.35 bitrate=N/A speed=20.5x    frame=11673 fps=491 q=-0.0 size=N/A time=00:08:06.86 bitrate=N/A speed=20.5x    frame=11945 fps=492 q=-0.0 size=N/A time=00:08:18.20 bitrate=N/A speed=20.5x    frame=12208 fps=492 q=-0.0 size=N/A time=00:08:29.17 bitrate=N/A speed=20.5x    frame=12449 fps=492 q=-0.0 size=N/A time=00:08:39.22 bitrate=N/A speed=20.5x    frame=12701 fps=491 q=-0.0 size=N/A time=00:08:49.73 bitrate=N/A speed=20.5x    frame=12913 fps=490 q=-0.0 size=N/A time=00:08:58.57 bitrate=N/A speed=20.4x    frame=13192 fps=491 q=-0.0 size=N/A time=00:09:10.21 bitrate=N/A speed=20.5x    frame=13451 fps=491 q=-0.0 size=N/A time=00:09:21.01 bitrate=N/A speed=20.5x    frame=13690 fps=491 q=-0.0 size=N/A time=00:09:30.98 bitrate=N/A speed=20.5x    frame=13941 fps=491 q=-0.0 size=N/A time=00:09:41.45 bitrate=N/A speed=20.5x    frame=14207 fps=491 q=-0.0 size=N/A time=00:09:52.55 bitrate=N/A speed=20.5x    frame=14452 fps=491 q=-0.0 size=N/A time=00:10:02.76 bitrate=N/A speed=20.5x    frame=14664 fps=489 q=-0.0 size=N/A time=00:10:11.61 bitrate=N/A speed=20.4x    frame=14908 fps=489 q=-0.0 size=N/A time=00:10:21.78 bitrate=N/A speed=20.4x    frame=15140 fps=488 q=-0.0 size=N/A time=00:10:31.46 bitrate=N/A speed=20.4x    frame=15394 fps=489 q=-0.0 size=N/A time=00:10:42.05 bitrate=N/A speed=20.4x    frame=15672 fps=489 q=-0.0 size=N/A time=00:10:53.65 bitrate=N/A speed=20.4x    frame=15919 fps=489 q=-0.0 size=N/A time=00:11:03.95 bitrate=N/A speed=20.4x    frame=16178 fps=489 q=-0.0 size=N/A time=00:11:14.75 bitrate=N/A speed=20.4x    frame=16436 fps=489 q=-0.0 size=N/A time=00:11:25.51 bitrate=N/A speed=20.4x    frame=16675 fps=489 q=-0.0 size=N/A time=00:11:35.48 bitrate=N/A speed=20.4x    frame=16915 fps=489 q=-0.0 size=N/A time=00:11:45.49 bitrate=N/A speed=20.4x    frame=17177 fps=489 q=-0.0 size=N/A time=00:11:56.42 bitrate=N/A speed=20.4x    frame=17406 fps=488 q=-0.0 size=N/A time=00:12:05.97 bitrate=N/A speed=20.4x    frame=17658 fps=489 q=-0.0 size=N/A time=00:12:16.48 bitrate=N/A speed=20.4x    frame=17898 fps=488 q=-0.0 size=N/A time=00:12:26.49 bitrate=N/A speed=20.4x    frame=18176 fps=489 q=-0.0 size=N/A time=00:12:38.09 bitrate=N/A speed=20.4x    frame=18452 fps=489 q=-0.0 size=N/A time=00:12:49.60 bitrate=N/A speed=20.4x    frame=18717 fps=490 q=-0.0 size=N/A time=00:13:00.65 bitrate=N/A speed=20.4x    frame=18992 fps=490 q=-0.0 size=N/A time=00:13:12.12 bitrate=N/A speed=20.4x    frame=19238 fps=490 q=-0.0 size=N/A time=00:13:22.38 bitrate=N/A speed=20.4x    frame=19473 fps=489 q=-0.0 size=N/A time=00:13:32.18 bitrate=N/A speed=20.4x    frame=19707 fps=489 q=-0.0 size=N/A time=00:13:41.94 bitrate=N/A speed=20.4x    frame=19960 fps=489 q=-0.0 size=N/A time=00:13:52.49 bitrate=N/A speed=20.4x    frame=20211 fps=489 q=-0.0 size=N/A time=00:14:02.96 bitrate=N/A speed=20.4x    frame=20492 fps=490 q=-0.0 size=N/A time=00:14:14.68 bitrate=N/A speed=20.4x    frame=20773 fps=490 q=-0.0 size=N/A time=00:14:26.40 bitrate=N/A speed=20.4x    frame=21039 fps=491 q=-0.0 size=N/A time=00:14:37.50 bitrate=N/A speed=20.5x    frame=21309 fps=491 q=-0.0 size=N/A time=00:14:48.76 bitrate=N/A speed=20.5x    frame=21591 fps=492 q=-0.0 size=N/A time=00:15:00.52 bitrate=N/A speed=20.5x    frame=21865 fps=492 q=-0.0 size=N/A time=00:15:11.95 bitrate=N/A speed=20.5x    frame=22104 fps=492 q=-0.0 size=N/A time=00:15:21.92 bitrate=N/A speed=20.5x    frame=22349 fps=492 q=-0.0 size=N/A time=00:15:32.13 bitrate=N/A speed=20.5x    frame=22602 fps=491 q=-0.0 size=N/A time=00:15:42.69 bitrate=N/A speed=20.5x    frame=22869 fps=492 q=-0.0 size=N/A time=00:15:53.82 bitrate=N/A speed=20.5x    frame=23124 fps=492 q=-0.0 size=N/A time=00:16:04.46 bitrate=N/A speed=20.5x    frame=23382 fps=492 q=-0.0 size=N/A time=00:16:15.22 bitrate=N/A speed=20.5x    frame=23631 fps=492 q=-0.0 size=N/A time=00:16:25.60 bitrate=N/A speed=20.5x    frame=23904 fps=492 q=-0.0 size=N/A time=00:16:36.99 bitrate=N/A speed=20.5x    frame=24148 fps=492 q=-0.0 size=N/A time=00:16:47.17 bitrate=N/A speed=20.5x    frame=24411 fps=492 q=-0.0 size=N/A time=00:16:58.14 bitrate=N/A speed=20.5x    frame=24651 fps=492 q=-0.0 size=N/A time=00:17:08.15 bitrate=N/A speed=20.5x    frame=24889 fps=492 q=-0.0 size=N/A time=00:17:18.07 bitrate=N/A speed=20.5x    frame=25129 fps=491 q=-0.0 size=N/A time=00:17:28.08 bitrate=N/A speed=20.5x    frame=25389 fps=491 q=-0.0 size=N/A time=00:17:38.93 bitrate=N/A speed=20.5x    frame=25653 fps=492 q=-0.0 size=N/A time=00:17:49.94 bitrate=N/A speed=20.5x    frame=25923 fps=492 q=-0.0 size=N/A time=00:18:01.20 bitrate=N/A speed=20.5x    frame=26177 fps=492 q=-0.0 size=N/A time=00:18:11.79 bitrate=N/A speed=20.5x    frame=26453 fps=492 q=-0.0 size=N/A time=00:18:23.31 bitrate=N/A speed=20.5x    frame=26721 fps=493 q=-0.0 size=N/A time=00:18:34.48 bitrate=N/A speed=20.5x    frame=26986 fps=493 q=-0.0 size=N/A time=00:18:45.54 bitrate=N/A speed=20.6x    frame=27259 fps=493 q=-0.0 size=N/A time=00:18:56.92 bitrate=N/A speed=20.6x    frame=27517 fps=493 q=-0.0 size=N/A time=00:19:07.68 bitrate=N/A speed=20.6x    frame=27757 fps=493 q=-0.0 size=N/A time=00:19:17.69 bitrate=N/A speed=20.6x    frame=28029 fps=493 q=-0.0 size=N/A time=00:19:29.04 bitrate=N/A speed=20.6x    frame=28304 fps=494 q=-0.0 size=N/A time=00:19:40.51 bitrate=N/A speed=20.6x    frame=28563 fps=494 q=-0.0 size=N/A time=00:19:51.31 bitrate=N/A speed=20.6x    frame=28815 fps=494 q=-0.0 size=N/A time=00:20:01.82 bitrate=N/A speed=20.6x    frame=29068 fps=494 q=-0.0 size=N/A time=00:20:12.37 bitrate=N/A speed=20.6x    frame=29302 fps=493 q=-0.0 size=N/A time=00:20:22.13 bitrate=N/A speed=20.6x    frame=29556 fps=493 q=-0.0 size=N/A time=00:20:32.73 bitrate=N/A speed=20.6x    frame=29806 fps=493 q=-0.0 size=N/A time=00:20:43.15 bitrate=N/A speed=20.6x    frame=30012 fps=492 q=-0.0 size=N/A time=00:20:51.75 bitrate=N/A speed=20.5x    frame=30258 fps=492 q=-0.0 size=N/A time=00:21:02.01 bitrate=N/A speed=20.5x    frame=30526 fps=493 q=-0.0 size=N/A time=00:21:13.18 bitrate=N/A speed=20.5x    frame=30812 fps=493 q=-0.0 size=N/A time=00:21:25.11 bitrate=N/A speed=20.6x    frame=31081 fps=493 q=-0.0 size=N/A time=00:21:36.33 bitrate=N/A speed=20.6x    frame=31344 fps=493 q=-0.0 size=N/A time=00:21:47.30 bitrate=N/A speed=20.6x    frame=31607 fps=494 q=-0.0 size=N/A time=00:21:58.27 bitrate=N/A speed=20.6x    frame=31882 fps=494 q=-0.0 size=N/A time=00:22:09.74 bitrate=N/A speed=20.6x    frame=32130 fps=494 q=-0.0 size=N/A time=00:22:20.08 bitrate=N/A speed=20.6x    frame=32382 fps=494 q=-0.0 size=N/A time=00:22:30.59 bitrate=N/A speed=20.6x    frame=32608 fps=493 q=-0.0 size=N/A time=00:22:40.02 bitrate=N/A speed=20.6x    frame=32810 fps=492 q=-0.0 size=N/A time=00:22:48.45 bitrate=N/A speed=20.5x    frame=33027 fps=492 q=-0.0 size=N/A time=00:22:57.50 bitrate=N/A speed=20.5x    frame=33225 fps=491 q=-0.0 size=N/A time=00:23:05.75 bitrate=N/A speed=20.5x    frame=33385 fps=490 q=-0.0 size=N/A time=00:23:12.43 bitrate=N/A speed=20.4x    frame=33580 fps=489 q=-0.0 size=N/A time=00:23:20.56 bitrate=N/A speed=20.4x    frame=33746 fps=488 q=-0.0 size=N/A time=00:23:27.48 bitrate=N/A speed=20.3x    frame=33954 fps=487 q=-0.0 size=N/A time=00:23:36.16 bitrate=N/A speed=20.3x    [Parsed_psnr_10 @ 000001b847a60fc0] PSNR y:49.470290 u:50.951432 v:50.256593 average:49.812460 min:38.185850 max:inf
[out#0/null @ 000001b83a98f080] video:14697KiB audio:267516KiB subtitle:0KiB other streams:0KiB global headers:0KiB muxing overhead: unknown
frame=34203 fps=487 q=-0.0 Lsize=N/A time=00:23:46.55 bitrate=N/A speed=20.3x    
